<svg xmlns="http://www.w3.org/2000/svg" xmlns:xlink="http://www.w3.org/1999/xlink" version="1.1" width="98.2526" height="57.2903" viewBox="0 0 98.2526 57.2903">
<defs>
<clipPath id="clip_2">
<path transform="matrix(1,0,0,-1,0,57.2903)" d="M0 57.29H98.253V0H0Z"/>
</clipPath>
</defs>
<path transform="matrix(1,0,0,-1,0,57.2903)" d="M.266 0H98.253V57.29H.266Z" fill="#ffffff"/>
<g clip-path="url(#clip_2)">
<path transform="matrix(1,0,0,-1,33.5171,42.7786)" d="M0 0C-.508 0-1.026 .058-1.584 .175L-2.038 .271V10.328C-2.038 10.644-1.782 10.9-1.466 10.9-1.15 10.9-.894 10.644-.894 10.328V1.213C-.585 1.167-.289 1.145 0 1.145 4.312 1.145 7.821 5.4 7.821 10.632 7.821 15.863 4.312 20.119 0 20.119-.316 20.119-.572 20.375-.572 20.691-.572 21.007-.316 21.263 0 21.263 4.943 21.263 8.966 16.494 8.966 10.632 8.966 4.77 4.943 0 0 0" fill="#231f20"/>
<path transform="matrix(1,0,0,-1,27.9439,41.565698)" d="M0 0C-.31-.046-.604-.068-.894-.068-5.207-.068-8.716 4.187-8.716 9.419-8.716 14.65-5.207 18.906-.894 18.906-.605 18.906-.31 18.884 0 18.837V18.612ZM-4.425 26.512C-5.226 26.512-5.998 26.364-6.722 26.071-7.015 25.953-7.156 25.619-7.038 25.326-6.92 25.034-6.586 24.892-6.293 25.011-5.706 25.248-5.077 25.368-4.425 25.368-1.985 25.368 0 23.652 0 21.543V19.99C-.305 20.028-.602 20.05-.894 20.05-5.838 20.05-9.86 15.281-9.86 9.419-9.86 3.557-5.838-1.213-.894-1.213-.386-1.213 .132-1.155 .69-1.038L1.144-.941V18.612 19.778 21.543C1.144 24.283-1.354 26.512-4.425 26.512" fill="#231f20"/>
<path transform="matrix(1,0,0,-1,54.0874,42.7786)" d="M0 0C-.316 0-.572 .256-.572 .572V19.887C-.882 19.934-1.177 19.956-1.466 19.956-5.779 19.956-9.288 15.7-9.288 10.469-9.288 6.495-7.341 2.552-4.658 1.093-4.381 .941-4.278 .595-4.429 .316-4.58 .039-4.928-.063-5.205 .088-8.233 1.735-10.432 6.101-10.432 10.469-10.432 16.331-6.41 21.1-1.466 21.1-.959 21.1-.44 21.043 .118 20.925L.572 20.828V.572C.572 .256 .315 0 0 0" fill="#231f20"/>
<path transform="matrix(1,0,0,-1,69.7369,42.7786)" d="M0 0C-.315 0-.571 .256-.571 .572V20.828L-.118 20.925C.44 21.043 .959 21.1 1.466 21.1 6.41 21.1 10.433 16.331 10.433 10.469 10.433 6.101 8.233 1.735 5.205 .088 4.927-.063 4.58 .039 4.429 .316 4.278 .595 4.381 .941 4.658 1.093 7.341 2.552 9.288 6.495 9.288 10.469 9.288 15.7 5.779 19.956 1.466 19.956 1.178 19.956 .882 19.934 .572 19.887V.572C.572 .256 .316 0 0 0" fill="#231f20"/>
<path transform="matrix(1,0,0,-1,58.8843,42.7786)" d="M0 0C-.508 0-1.025 .058-1.584 .175L-2.038 .271V27.695C-2.038 28.011-1.781 28.267-1.466 28.267-1.149 28.267-.894 28.011-.894 27.695V1.213C-.584 1.167-.289 1.145 0 1.145 4.313 1.145 7.822 5.4 7.822 10.632 7.822 14.499 5.875 18.365 3.192 19.824 2.915 19.976 2.813 20.322 2.963 20.6 3.114 20.878 3.461 20.98 3.739 20.829 6.816 19.155 8.967 14.962 8.967 10.632 8.967 4.77 4.944 0 0 0" fill="#231f20"/>
</g>
</svg>
